# xmcd
#
# Track frame offsets: 
#        150
#        13526
#        25607
#        36558
#        49909
#        59653
#        71606
#        83104
#        96445
#        106583
#        115566
#        128562
#        141044
#        155551
#        170209
#        183235
#        197624
#        213904
#        225067
#        239311
#
# Disc length: 3348 seconds
#
# Revision: 0
# Processed by: cddbd v1.5.2PL0 Copyright (c) Steve Scherf et al.
# Submitted via: ExactAudioCopy v0.99pb5
#
DISCID=060d1214
DTITLE=Frank Sinatra - Frank Sinatra - Masters of Voice
DYEAR=2006
DGENRE=Swing
TTITLE0=(Love Is) The Tender Trap
TTITLE1=Foggy Day
TTITLE2=Jeepers Creepers
TTITLE3=Begin The Beguine
TTITLE4=All Of Me
TTITLE5=Love And Marriage
TTITLE6=My Funny Valentine
TTITLE7=Someone To Watch Over Me
TTITLE8=Taking A Chance On Love
TTITLE9=They Can't Take That Away From Me
TTITLE10=Young At Heart
TTITLE11=Saturday Night (Is The Loneliest Night In The Week)
TTITLE12=My One And Only Love
TTITLE13=Just One Of Those Things
TTITLE14=Little Girl Blue
TTITLE15=Sweet Lorraine
TTITLE16=This Love Of Mine
TTITLE17=I Love You
TTITLE18=These Foolish Thing (Reming Me Of You)
TTITLE19=The Girl Next Door
EXTD=
EXTT0=
EXTT1=
EXTT2=
EXTT3=
EXTT4=
EXTT5=
EXTT6=
EXTT7=
EXTT8=
EXTT9=
EXTT10=
EXTT11=
EXTT12=
EXTT13=
EXTT14=
EXTT15=
EXTT16=
EXTT17=
EXTT18=
EXTT19=
PLAYORDER=
